<?xml version="1.0" encoding="UTF-8" standalone="no"?>
<!DOCTYPE svg PUBLIC "-//W3C//DTD SVG 1.1//EN" "http://www.w3.org/Graphics/SVG/1.1/DTD/svg11.dtd">
<svg width="100%" height="100%" viewBox="0 0 667 667" version="1.1" xmlns="http://www.w3.org/2000/svg" xmlns:xlink="http://www.w3.org/1999/xlink" xml:space="preserve" xmlns:serif="http://www.serif.com/" style="fill-rule:evenodd;clip-rule:evenodd;stroke-linejoin:round;stroke-miterlimit:2;">
    <g transform="matrix(1,0,0,1,-66.666667,-66.666667)">
        <path d="M400,733.333C215.905,733.333 66.667,584.093 66.667,400C66.667,215.905 215.905,66.667 400,66.667C584.093,66.667 733.333,215.905 733.333,400C733.333,584.093 584.093,733.333 400,733.333ZM440.109,239.565C440.109,217.414 422.151,199.457 400,199.457C377.849,199.457 359.891,217.414 359.891,239.565L359.891,359.891L239.565,359.891C217.414,359.891 199.457,377.849 199.457,400C199.457,422.151 217.414,440.109 239.565,440.109L359.891,440.109L359.891,560.435C359.891,582.585 377.849,600.543 400,600.543C422.151,600.543 440.109,582.585 440.109,560.435L440.109,440.109L560.435,440.109C582.585,440.109 600.543,422.151 600.543,400C600.543,377.849 582.585,359.891 560.435,359.891L440.109,359.891L440.109,239.565Z" style="fill:rgb(44,44,48);"/>
    </g>
</svg>
