<?xml version="1.0" encoding="UTF-8" standalone="no"?>
<!DOCTYPE svg PUBLIC "-//W3C//DTD SVG 1.1//EN" "http://www.w3.org/Graphics/SVG/1.1/DTD/svg11.dtd">
<svg width="100%" height="100%" viewBox="0 0 512 512" version="1.1" xmlns="http://www.w3.org/2000/svg" xmlns:xlink="http://www.w3.org/1999/xlink" xml:space="preserve" xmlns:serif="http://www.serif.com/" style="fill-rule:evenodd;clip-rule:evenodd;stroke-linejoin:round;stroke-miterlimit:2;">
    <g transform="matrix(0.950421,0,0,0.950421,12.69223,12.692255)">
        <path d="M256.001,226.93C220.469,226.93 191.563,255.834 191.563,291.366C191.563,326.896 220.469,355.8 256.001,355.8C291.53,355.8 320.435,326.896 320.435,291.366C320.435,255.834 291.53,226.93 256.001,226.93Z" style="fill:rgb(44,44,48);fill-rule:nonzero;"/>
        <g transform="matrix(1.586881,0,0,1,-319.984965,8.609589)">
            <path d="M417.845,38.648C427.357,38.648 435.068,50.885 435.068,65.979L435.068,65.983C435.068,81.077 427.357,93.314 417.845,93.314L308.087,93.314C298.575,93.314 290.864,81.077 290.864,65.983L290.864,65.979C290.864,50.885 298.575,38.648 308.087,38.648L417.845,38.648Z" style="fill:rgb(44,44,48);"/>
        </g>
        <path d="M440.599,114.603L71.401,114.603C32.129,114.603 0,146.732 0,186.006L0,401.952C0,441.222 32.129,473.353 71.401,473.353L440.599,473.353C479.871,473.353 512,441.222 512,401.952L512,186.006C512,146.732 479.871,114.603 440.599,114.603ZM88.817,241.732C68.618,241.732 52.245,225.357 52.245,205.161C52.245,184.962 68.618,168.587 88.817,168.587C109.014,168.587 125.387,184.962 125.387,205.161C125.387,225.357 109.014,241.732 88.817,241.732ZM256.001,392.374C200.303,392.374 154.993,347.061 154.993,291.366C154.993,235.671 200.304,190.358 256.001,190.358C311.695,190.358 357.007,235.67 357.007,291.366C357.007,347.062 311.695,392.374 256.001,392.374Z" style="fill:rgb(44,44,48);fill-rule:nonzero;"/>
    </g>
</svg>
