<?xml version="1.0" encoding="UTF-8" standalone="no"?>
<!DOCTYPE svg PUBLIC "-//W3C//DTD SVG 1.1//EN" "http://www.w3.org/Graphics/SVG/1.1/DTD/svg11.dtd">
<svg width="100%" height="100%" viewBox="0 0 800 800" version="1.1" xmlns="http://www.w3.org/2000/svg" xmlns:xlink="http://www.w3.org/1999/xlink" xml:space="preserve" xmlns:serif="http://www.serif.com/" style="fill-rule:evenodd;clip-rule:evenodd;stroke-linejoin:round;stroke-miterlimit:2;">
    <path d="M325.926,700C221.892,700 169.875,700 132.508,675.487C116.332,664.873 102.443,651.237 91.634,635.357C66.667,598.67 66.667,547.597 66.667,445.453C66.667,343.313 66.667,292.24 91.634,255.553C102.443,239.671 116.332,226.035 132.508,215.423C156.518,199.671 186.578,194.041 232.6,192.029C254.562,192.029 273.471,175.689 277.778,154.545C284.238,122.83 312.602,100 345.543,100L454.457,100C487.397,100 515.76,122.83 522.223,154.545C526.53,175.689 545.437,192.029 567.4,192.029C613.423,194.041 643.48,199.671 667.493,215.423C683.667,226.035 697.557,239.671 708.367,255.553C733.333,292.24 733.333,343.313 733.333,445.453C733.333,547.597 733.333,598.67 708.367,635.357C697.557,651.237 683.667,664.873 667.493,675.487C630.127,700 578.11,700 474.073,700L325.926,700ZM400,309.091C323.294,309.091 261.111,370.143 261.111,445.453C261.111,520.767 323.294,581.817 400,581.817C476.707,581.817 538.89,520.767 538.89,445.453C538.89,370.143 476.707,309.091 400,309.091ZM557.407,336.363C557.407,351.427 569.843,363.637 585.187,363.637L622.223,363.637C637.563,363.637 650,351.427 650,336.363C650,321.301 637.563,309.091 622.223,309.091L585.187,309.091C569.843,309.091 557.407,321.301 557.407,336.363Z" style="fill:rgb(44,44,48);"/>
    <path d="M400,363.637C446.023,363.637 483.333,400.267 483.333,445.453C483.333,490.64 446.023,527.273 400,527.273C353.977,527.273 316.667,490.64 316.667,445.453C316.667,400.267 353.977,363.637 400,363.637Z" style="fill:rgb(44,44,48);"/>
</svg>
