<?xml version="1.0" encoding="UTF-8" standalone="no"?>
<!DOCTYPE svg PUBLIC "-//W3C//DTD SVG 1.1//EN" "http://www.w3.org/Graphics/SVG/1.1/DTD/svg11.dtd">
<svg width="100%" height="100%" viewBox="0 0 800 800" version="1.1" xmlns="http://www.w3.org/2000/svg" xmlns:xlink="http://www.w3.org/1999/xlink" xml:space="preserve" xmlns:serif="http://www.serif.com/" style="fill-rule:evenodd;clip-rule:evenodd;stroke-linejoin:round;stroke-miterlimit:2;">
    <g transform="matrix(37.298267,0,0,38.6613,-47.578408,-63.935062)">
        <path d="M6.6,11.397C6.6,8.671 6.6,7.308 7.443,6.461C8.287,5.614 9.644,5.614 12.36,5.614L15.24,5.614C17.955,5.614 19.312,5.614 20.156,6.461C21,7.308 21,8.671 21,11.397L21,16.217C21,18.943 21,20.306 20.156,21.153C19.312,22 17.955,22 15.24,22L12.36,22C9.644,22 8.287,22 7.443,21.153C6.6,20.306 6.6,18.943 6.6,16.217L6.6,11.397Z" style="fill:rgb(44,44,48);fill-rule:nonzero;"/>
    </g>
    <g transform="matrix(37.298267,0,0,38.6613,-47.578408,-63.935062)">
        <path d="M4.172,3.172C3,4.343 3,6.229 3,10L3,12C3,15.771 3,17.657 4.172,18.828C4.789,19.446 5.605,19.738 6.791,19.876C6.6,19.035 6.6,17.88 6.6,16.217L6.6,11.397C6.6,8.671 6.6,7.308 7.443,6.461C8.287,5.614 9.644,5.614 12.36,5.614L15.24,5.614C16.892,5.614 18.041,5.614 18.878,5.805C18.74,4.611 18.448,3.792 17.828,3.172C16.657,2 14.771,2 11,2C7.229,2 5.343,2 4.172,3.172Z" style="fill:rgb(44,44,48);fill-opacity:0.5;fill-rule:nonzero;"/>
    </g>
</svg>
