<?xml version="1.0" encoding="UTF-8" standalone="no"?>
<!DOCTYPE svg PUBLIC "-//W3C//DTD SVG 1.1//EN" "http://www.w3.org/Graphics/SVG/1.1/DTD/svg11.dtd">
<svg width="100%" height="100%" viewBox="0 0 800 800" version="1.1" xmlns="http://www.w3.org/2000/svg" xmlns:xlink="http://www.w3.org/1999/xlink" xml:space="preserve" xmlns:serif="http://www.serif.com/" style="fill-rule:evenodd;clip-rule:evenodd;stroke-linejoin:round;stroke-miterlimit:2;">
    <g transform="matrix(52.000553,0,0,52.000553,-42.004697,-98.165294)">
        <path d="M16.014,8.86L16.014,10.3C16.005,10.57 15.811,10.801 15.546,10.856L14.364,11.06C14.326,11.067 14.288,11.069 14.25,11.066C14.111,11.603 13.898,12.117 13.616,12.594C13.645,12.619 13.672,12.647 13.694,12.678L14.385,13.658C14.535,13.884 14.509,14.186 14.323,14.383L13.303,15.403C13.106,15.588 12.805,15.613 12.579,15.464L11.599,14.774C11.567,14.752 11.539,14.726 11.514,14.696C11.032,14.98 10.512,15.195 9.97,15.333C9.98,15.391 9.98,15.45 9.97,15.508L9.788,16.561C9.726,16.862 9.463,17.084 9.155,17.093L7.845,17.093C7.537,17.084 7.274,16.862 7.212,16.561L7.03,15.508C7.02,15.45 7.02,15.391 7.03,15.333C6.488,15.195 5.968,14.98 5.486,14.696C5.461,14.725 5.433,14.751 5.401,14.773L4.421,15.464C4.195,15.614 3.893,15.588 3.696,15.402L2.676,14.382C2.492,14.185 2.466,13.884 2.615,13.659L3.306,12.679C3.328,12.648 3.354,12.619 3.383,12.594C3.101,12.117 2.888,11.603 2.75,11.066C2.712,11.069 2.674,11.067 2.636,11.06L1.454,10.856C1.189,10.802 0.994,10.57 0.986,10.3L0.986,8.86C0.994,8.59 1.189,8.358 1.454,8.304L2.636,8.1C2.674,8.093 2.712,8.092 2.75,8.095C2.888,7.559 3.101,7.044 3.383,6.567C3.354,6.542 3.328,6.513 3.306,6.482L2.615,5.502C2.466,5.276 2.491,4.976 2.676,4.778L3.696,3.758C3.893,3.573 4.195,3.547 4.421,3.696L5.401,4.387C5.433,4.409 5.461,4.435 5.486,4.465C5.963,4.183 6.477,3.97 7.014,3.831C7.011,3.793 7.012,3.755 7.019,3.717L7.223,2.535C7.277,2.27 7.509,2.075 7.779,2.067L9.221,2.067C9.491,2.075 9.723,2.27 9.777,2.535L9.981,3.717C9.988,3.755 9.989,3.793 9.986,3.831C10.523,3.97 11.037,4.183 11.514,4.465C11.539,4.435 11.567,4.409 11.599,4.387L12.579,3.696C12.805,3.547 13.106,3.573 13.303,3.758L14.323,4.778C14.508,4.975 14.534,5.276 14.385,5.502L13.694,6.482C13.672,6.513 13.645,6.542 13.616,6.567C13.898,7.044 14.111,7.558 14.25,8.095C14.288,8.092 14.326,8.093 14.364,8.1L15.546,8.304C15.811,8.359 16.005,8.59 16.014,8.86ZM11.059,9.58C11.058,8.177 9.903,7.022 8.5,7.022C7.096,7.022 5.941,8.177 5.941,9.581C5.941,10.984 7.096,12.139 8.499,12.14C8.499,12.14 8.5,12.14 8.5,12.14C9.904,12.14 11.059,10.985 11.059,9.581C11.059,9.581 11.059,9.58 11.059,9.58Z" style="fill:rgb(44,44,48);fill-rule:nonzero;"/>
    </g>
</svg>
