<?xml version="1.0" encoding="UTF-8" standalone="no"?>
<!DOCTYPE svg PUBLIC "-//W3C//DTD SVG 1.1//EN" "http://www.w3.org/Graphics/SVG/1.1/DTD/svg11.dtd">
<svg width="100%" height="100%" viewBox="0 0 800 800" version="1.1" xmlns="http://www.w3.org/2000/svg" xmlns:xlink="http://www.w3.org/1999/xlink" xml:space="preserve" xmlns:serif="http://www.serif.com/" style="fill-rule:evenodd;clip-rule:evenodd;stroke-linejoin:round;stroke-miterlimit:2;">
    <g transform="matrix(25,0,0,25,0,0)">
        <path d="M0,26.016C0,27.68 0.587,29.088 1.76,30.24C2.933,31.392 4.352,31.979 6.016,32L26.016,32C27.659,32 29.067,31.413 30.24,30.24C31.413,29.067 32,27.659 32,26.016L32,6.016C32,4.352 31.413,2.933 30.24,1.76C29.067,0.587 27.659,-0 26.016,-0L6.016,-0C4.352,-0 2.933,0.587 1.76,1.76C0.587,2.933 -0,4.352 -0,6.016L-0,26.016ZM4,26.016L4,6.016C4,5.461 4.192,4.992 4.576,4.608C4.96,4.224 5.44,4.021 6.016,4L26.016,4C26.549,4 27.019,4.203 27.424,4.608C27.829,5.013 28.021,5.483 28,6.016L28,26.016C28,26.571 27.808,27.04 27.424,27.424C27.04,27.808 26.571,28 26.016,28L6.016,28C5.461,28 4.981,27.808 4.576,27.424C4.171,27.04 3.979,26.571 4,26.016ZM6.016,24C6.016,24.555 6.208,25.035 6.592,25.44C6.976,25.845 7.445,26.037 8,26.016L24,26.016C24.555,26.016 25.024,25.824 25.408,25.44C25.792,25.056 25.995,24.576 26.016,24L26.016,23.072C25.867,22.773 25.493,21.877 24.896,20.384C24.299,18.891 23.765,17.696 23.296,16.8C22.827,15.904 22.4,15.2 22.016,14.688C21.653,14.304 21.28,14.101 20.896,14.08C20.512,14.059 20.128,14.187 19.744,14.464C19.36,14.741 18.976,15.115 18.592,15.584C18.208,16.053 17.813,16.576 17.408,17.152C17.003,17.728 16.619,18.293 16.256,18.848C15.893,19.403 15.509,19.936 15.104,20.448C14.699,20.96 14.336,21.355 14.016,21.632C13.696,21.909 13.333,22.059 12.928,22.08C12.544,22.08 11.989,21.6 11.264,20.64C11.157,20.512 10.997,20.309 10.784,20.032C10.037,19.029 9.504,18.421 9.184,18.208C8.672,17.867 8.277,17.984 8,18.56C7.851,18.901 7.541,19.648 7.072,20.8C6.603,21.952 6.251,22.805 6.016,23.36L6.016,24ZM6.016,9.024C6.016,9.856 6.304,10.56 6.88,11.136C7.456,11.712 8.16,12 8.992,12C9.824,12 10.539,11.712 11.136,11.136C11.733,10.56 12.021,9.856 12,9.024C11.979,8.192 11.691,7.477 11.136,6.88C10.581,6.283 9.867,5.995 8.992,6.016C8.117,6.037 7.413,6.325 6.88,6.88C6.347,7.435 6.059,8.149 6.016,9.024Z" style="fill:rgb(44,44,48);fill-rule:nonzero;"/>
    </g>
</svg>
