<?xml version="1.0" encoding="UTF-8" standalone="no"?>
<!DOCTYPE svg PUBLIC "-//W3C//DTD SVG 1.1//EN" "http://www.w3.org/Graphics/SVG/1.1/DTD/svg11.dtd">
<svg width="100%" height="100%" viewBox="0 0 893 887" version="1.1" xmlns="http://www.w3.org/2000/svg" xmlns:xlink="http://www.w3.org/1999/xlink" xml:space="preserve" xmlns:serif="http://www.serif.com/" style="fill-rule:evenodd;clip-rule:evenodd;stroke-linejoin:round;stroke-miterlimit:2;">
    <g transform="matrix(1,0,0,1,-110.797973,-113.813813)">
        <g transform="matrix(1.029697,0,0,1.152175,-75.233949,37.002131)">
            <g transform="matrix(0.971159,0,0,0.867924,73.064163,-32.11502)">
                <path d="M797.263,675.684L797.263,922.99C797.263,965.551 766.131,1000.073 728.117,1000.186L727.93,1000.186L659.97,1000.186C657.387,1000.186 654.836,1000.024 652.325,999.709L718.179,999.709C684.581,996.761 654.031,980.483 631.481,955.251C606.769,927.215 591.323,888.809 591.323,846.563L591.323,715.311C591.323,695.76 578.889,681.389 564.038,677.805C554.968,675.616 544.996,677.45 536.406,684.586L477.713,733.746C464.327,745.267 445.106,743.731 433.093,730.289L375.43,665.767C368.737,658.278 359.899,654.534 351.061,654.534C342.222,654.534 333.384,658.278 326.691,665.767L316.737,676.972L316.737,477.235L797.263,675.684Z" style="fill:rgb(255,239,227);fill-opacity:0.9;"/>
            </g>
            <g transform="matrix(0.971159,0,0,0.867924,73.064163,-32.11502)">
                <path d="M316.737,378.251L316.737,267.437C316.737,182.56 351.061,113.814 454.03,113.814L865.909,113.814C828.154,113.814 797.263,148.379 797.263,190.625L797.263,576.7L316.737,378.251Z" style="fill:rgb(255,239,227);fill-opacity:0.9;"/>
            </g>
            <g transform="matrix(33.333333,0,0,33.333333,314,0)">
                <path d="M22,6L22,11L16,11L16,4.01C16,2.9 16.91,2 18.02,2C19.11,2.01 20.11,2.45 20.83,3.17C21.55,3.9 22,4.9 22,6Z" style="fill:rgb(255,121,16);fill-opacity:0.85;fill-rule:nonzero;"/>
            </g>
            <g transform="matrix(0.867924,0,0,0.867924,130.566595,-32.11502)">
                <path d="M663.664,999.709C666.473,1000.024 669.327,1000.186 672.218,1000.186L211.347,1000.186L210.579,1000.186C168.717,999.802 130.311,982.904 102.659,955.251C75.007,927.215 57.724,888.809 57.724,846.563L57.724,715.311C57.724,695.361 71.864,680.827 88.659,677.45C98.7,675.432 109.69,677.401 119.174,684.586L184.847,733.746C200.21,745.267 221.717,743.731 235.543,729.905L299.296,665.767C306.786,658.278 316.675,654.534 326.565,654.534C336.455,654.534 346.344,658.278 353.833,665.767L418.355,730.289C431.797,743.731 453.304,745.267 468.283,733.746L533.956,684.586C543.568,677.45 554.726,675.616 564.875,677.805C581.492,681.389 595.406,695.76 595.406,715.311L595.406,846.563C595.406,888.809 612.688,927.215 640.341,955.251C665.572,980.483 699.757,996.761 737.351,999.709L663.664,999.709Z" style="fill:rgb(255,121,16);fill-opacity:0.85;"/>
            </g>
        </g>
    </g>
</svg>
