<?xml version="1.0" encoding="UTF-8" standalone="no"?>
<!DOCTYPE svg PUBLIC "-//W3C//DTD SVG 1.1//EN" "http://www.w3.org/Graphics/SVG/1.1/DTD/svg11.dtd">
<svg width="100%" height="100%" viewBox="0 0 800 800" version="1.1" xmlns="http://www.w3.org/2000/svg" xmlns:xlink="http://www.w3.org/1999/xlink" xml:space="preserve" xmlns:serif="http://www.serif.com/" style="fill-rule:evenodd;clip-rule:evenodd;stroke-linejoin:round;stroke-miterlimit:2;">
    <g id="Page-1" transform="matrix(25,0,0,25,0,0)">
        <g id="Icon-Set-Filled" transform="matrix(0.983478,0,0,0.983478,-355.754783,-1019.602609)">
            <path id="plus" d="M390,1050.83C391.198,1050.83 392.17,1051.801 392.17,1053C392.17,1054.199 391.198,1055.17 390,1055.17L382,1055.17C380.989,1055.17 380.17,1055.989 380.17,1057L380.17,1065C380.17,1066.199 379.198,1067.17 378,1067.17C376.802,1067.17 375.83,1066.199 375.83,1065L375.83,1057C375.83,1055.989 375.011,1055.17 374,1055.17L366,1055.17C364.802,1055.17 363.83,1054.199 363.83,1053C363.83,1051.801 364.802,1050.83 366,1050.83L374,1050.83C375.011,1050.83 375.83,1050.011 375.83,1049L375.83,1041C375.83,1039.801 376.802,1038.83 378,1038.83C379.198,1038.83 380.17,1039.801 380.17,1041L380.17,1049C380.17,1050.011 380.989,1050.83 382,1050.83L390,1050.83Z" style="fill:rgb(44,44,48);"/>
        </g>
    </g>
</svg>
