<?xml version="1.0" encoding="UTF-8" standalone="no"?>
<!DOCTYPE svg PUBLIC "-//W3C//DTD SVG 1.1//EN" "http://www.w3.org/Graphics/SVG/1.1/DTD/svg11.dtd">
<svg width="100%" height="100%" viewBox="0 0 800 800" version="1.1" xmlns="http://www.w3.org/2000/svg" xmlns:xlink="http://www.w3.org/1999/xlink" xml:space="preserve" xmlns:serif="http://www.serif.com/" style="fill-rule:evenodd;clip-rule:evenodd;stroke-linejoin:round;stroke-miterlimit:2;">
    <g transform="matrix(0.373913,0,0,0.373913,41.043478,41.043478)">
        <path d="M960,-40.93C1511.958,-40.93 1960.93,408.154 1960.93,960C1960.93,1511.846 1511.958,1960.93 960,1960.93C408.042,1960.93 -40.93,1511.846 -40.93,960C-40.93,723.306 42.428,498.048 189.894,320.518L101.017,221.27C76.466,193.854 70.326,154.569 85.34,120.969C100.354,87.37 133.717,65.737 170.518,65.737L548.846,65.737C621.794,65.737 680.93,124.873 680.93,197.821L680.93,549.532C680.93,588.748 656.406,623.777 619.558,637.195C582.709,650.614 541.403,639.556 516.186,609.523L425.309,501.288C316.622,627.681 254.263,789.253 254.263,960C254.263,1349.163 570.937,1665.737 960,1665.737C1349.063,1665.737 1665.737,1349.163 1665.737,960C1665.737,586.439 1373.953,279.751 1006.518,255.861C957.36,252.774 919.07,212.005 919.07,162.75L919.07,0C919.07,-22.605 937.395,-40.93 960,-40.93Z" style="fill:rgb(44,44,48);"/>
    </g>
</svg>
