<?xml version="1.0" encoding="UTF-8" standalone="no"?>
<!DOCTYPE svg PUBLIC "-//W3C//DTD SVG 1.1//EN" "http://www.w3.org/Graphics/SVG/1.1/DTD/svg11.dtd">
<svg width="100%" height="100%" viewBox="0 0 800 800" version="1.1" xmlns="http://www.w3.org/2000/svg" xmlns:xlink="http://www.w3.org/1999/xlink" xml:space="preserve" xmlns:serif="http://www.serif.com/" style="fill-rule:evenodd;clip-rule:evenodd;stroke-linejoin:round;stroke-miterlimit:2;">
    <g transform="matrix(49.058099,0,0,49.058099,56.593305,7.535206)">
        <path d="M11,6C12.657,6 14,4.657 14,3C14,1.343 12.657,0 11,0C9.343,0 8,1.343 8,3C8,3.224 8.024,3.442 8.071,3.651L4.869,5.653C4.356,5.244 3.707,5 3,5C1.343,5 0,6.343 0,8C0,9.657 1.343,11 3,11C3.707,11 4.356,10.756 4.869,10.347L8.071,12.349C8.024,12.558 8,12.776 8,13C8,14.657 9.343,16 11,16C12.657,16 14,14.657 14,13C14,11.343 12.657,10 11,10C10.293,10 9.644,10.244 9.131,10.653L5.929,8.651C5.976,8.442 6,8.224 6,8C6,7.776 5.976,7.558 5.929,7.349L9.131,5.347C9.644,5.756 10.293,6 11,6Z" style="fill:rgb(44,44,48);fill-rule:nonzero;"/>
    </g>
</svg>
