<?xml version="1.0" encoding="UTF-8" standalone="no"?>
<!DOCTYPE svg PUBLIC "-//W3C//DTD SVG 1.1//EN" "http://www.w3.org/Graphics/SVG/1.1/DTD/svg11.dtd">
<svg width="100%" height="100%" viewBox="0 0 800 800" version="1.1" xmlns="http://www.w3.org/2000/svg" xmlns:xlink="http://www.w3.org/1999/xlink" xml:space="preserve" xmlns:serif="http://www.serif.com/" style="fill-rule:evenodd;clip-rule:evenodd;stroke-linejoin:round;stroke-miterlimit:2;">
    <g id="页面-1" transform="matrix(33.333333,0,0,33.333333,0,0)">
        <g id="Media" transform="matrix(1,0,0,1,-1104,-48)">
            <g id="skip_forward_fill" transform="matrix(1,0,0,1,1104,48)">
                <path id="MingCute" d="M24,0L24,24L0,24L0,0L24,0ZM12.593,23.258L12.582,23.26L12.511,23.295L12.492,23.299L12.477,23.295L12.406,23.26C12.396,23.256 12.387,23.259 12.382,23.265L12.378,23.276L12.361,23.703L12.366,23.723L12.377,23.736L12.48,23.81L12.495,23.814L12.507,23.81L12.611,23.736L12.623,23.72L12.627,23.703L12.61,23.276C12.608,23.266 12.601,23.259 12.593,23.258ZM12.858,23.145L12.845,23.147L12.66,23.24L12.65,23.25L12.647,23.261L12.665,23.691L12.67,23.703L12.678,23.71L12.879,23.803C12.891,23.807 12.902,23.803 12.908,23.795L12.912,23.781L12.878,23.167C12.875,23.155 12.867,23.147 12.858,23.145ZM12.143,23.147C12.133,23.142 12.122,23.145 12.116,23.153L12.11,23.167L12.076,23.781C12.075,23.793 12.083,23.802 12.093,23.805L12.108,23.803L12.309,23.71L12.319,23.702L12.323,23.691L12.34,23.261L12.337,23.249L12.328,23.24L12.143,23.147Z" style="fill:none;fill-rule:nonzero;"/>
                <path id="形状" d="M3.569,5.865C3.678,4.982 4.596,4.453 5.415,4.8L6.061,5.083L6.572,5.316L7.169,5.599L7.845,5.93L8.336,6.179L9.128,6.593L9.692,6.897L10.28,7.223L10.893,7.572L11.526,7.942L12.125,8.303L12.689,8.652L13.467,9.148L14.161,9.606L14.768,10.02L15.285,10.383L15.826,10.777L16.032,10.931C16.743,11.466 16.742,12.525 16.033,13.061L15.604,13.38L15.33,13.578L14.666,14.043L14.071,14.447L13.628,14.739L12.898,15.208L12.089,15.709L11.507,16.059L10.892,16.418L10.273,16.771L9.679,17.1L9.113,17.406L8.575,17.689L7.827,18.07L7.154,18.401L6.381,18.765L5.637,19.097L5.413,19.193C4.595,19.539 3.678,19.011 3.569,18.128L3.49,17.43L3.418,16.663L3.365,15.974L3.315,15.194L3.287,14.625L3.263,14.019L3.244,13.378L3.229,12.353L3.229,11.638L3.244,10.614L3.274,9.666L3.3,9.079L3.331,8.53L3.382,7.779L3.436,7.122L3.507,6.4L3.569,5.865ZM19,5C19.513,5 19.936,5.386 19.993,5.883L20,6L20,18C20,18.513 19.614,18.936 19.117,18.993L19,19L18,19C17.487,19 17.064,18.614 17.007,18.117L17,18L17,6C17,5.487 17.386,5.064 17.883,5.007L18,5L19,5Z" style="fill:rgb(44,44,48);fill-rule:nonzero;"/>
            </g>
        </g>
    </g>
</svg>
