<?xml version="1.0" encoding="UTF-8" standalone="no"?>
<!DOCTYPE svg PUBLIC "-//W3C//DTD SVG 1.1//EN" "http://www.w3.org/Graphics/SVG/1.1/DTD/svg11.dtd">
<svg width="100%" height="100%" viewBox="0 0 800 800" version="1.1" xmlns="http://www.w3.org/2000/svg" xmlns:xlink="http://www.w3.org/1999/xlink" xml:space="preserve" xmlns:serif="http://www.serif.com/" style="fill-rule:evenodd;clip-rule:evenodd;stroke-linecap:round;stroke-linejoin:round;stroke-miterlimit:1.5;">
    <g id="页面-1" transform="matrix(33.333333,0,0,33.333333,0,0)">
        <g id="Media" transform="matrix(1,0,0,1,-1104,-48)">
            <g id="形状" transform="matrix(1.399172,0,0,1.399172,1099.749314,43.216487)">
                <g id="skip_forward_fill">
                    <g id="形状1" serif:id="形状" transform="matrix(0.934977,0,0,0.934977,0.734574,0.779055)">
                        <path d="M3.569,5.865C3.678,4.982 4.596,4.453 5.415,4.8L6.061,5.083L6.572,5.316L7.169,5.599L7.845,5.93L8.336,6.179L9.128,6.593L9.692,6.897L10.28,7.223L10.893,7.572L11.526,7.942L12.125,8.303L12.689,8.652L13.467,9.148L14.161,9.606L14.768,10.02L15.285,10.383L15.826,10.777L16.032,10.931C16.743,11.466 16.742,12.525 16.033,13.061L15.604,13.38L15.33,13.578L14.666,14.043L14.071,14.447L13.628,14.739L12.898,15.208L12.089,15.709L11.507,16.059L10.892,16.418L10.273,16.771L9.679,17.1L9.113,17.406L8.575,17.689L7.827,18.07L7.154,18.401L6.381,18.765L5.637,19.097L5.413,19.193C4.595,19.539 3.678,19.011 3.569,18.128L3.49,17.43L3.418,16.663L3.365,15.974L3.315,15.194L3.287,14.625L3.263,14.019L3.244,13.378L3.229,12.353L3.229,11.638L3.244,10.614L3.274,9.666L3.3,9.079L3.331,8.53L3.382,7.779L3.436,7.122L3.507,6.4L3.569,5.865Z" style="fill:rgb(44,44,48);fill-rule:nonzero;"/>
                    </g>
                    <g transform="matrix(0.021441,0,0,0.009986,16.481666,7.972784)">
                        <path d="M74.174,708.783L74.174,96.826" style="fill:none;stroke:rgb(44,44,48);stroke-width:180.76px;"/>
                    </g>
                </g>
            </g>
        </g>
    </g>
</svg>
