<?xml version="1.0" encoding="UTF-8" standalone="no"?>
<!DOCTYPE svg PUBLIC "-//W3C//DTD SVG 1.1//EN" "http://www.w3.org/Graphics/SVG/1.1/DTD/svg11.dtd">
<svg width="100%" height="100%" viewBox="0 0 800 800" version="1.1" xmlns="http://www.w3.org/2000/svg" xmlns:xlink="http://www.w3.org/1999/xlink" xml:space="preserve" xmlns:serif="http://www.serif.com/" style="fill-rule:evenodd;clip-rule:evenodd;stroke-linejoin:round;stroke-miterlimit:2;">
    <g transform="matrix(1.533954,0,0,1.518342,7.30781,11.304347)">
        <path d="M458.159,404.216C439.229,370.566 408.225,332.452 357.75,310.785C328.882,330.981 293.812,342.872 256.005,342.872C218.177,342.872 183.107,330.982 154.238,310.785C103.764,332.452 72.759,370.567 53.84,404.216C28.731,448.848 48.417,512 91.842,512L420.159,512C463.583,512 483.269,448.848 458.159,404.216Z" style="fill:rgb(181,181,187);fill-rule:nonzero;"/>
        <path d="M256.005,300.641C330.149,300.641 390.236,240.533 390.236,166.399L390.236,134.241C390.236,60.108 330.149,0 256.005,0C181.85,0 121.753,60.108 121.753,134.242L121.753,166.4C121.753,240.533 181.851,300.641 256.005,300.641Z" style="fill:rgb(181,181,187);fill-rule:nonzero;"/>
    </g>
</svg>
